<svg xmlns="http://www.w3.org/2000/svg" xmlns:xlink="http://www.w3.org/1999/xlink" width="300" height="100" viewBox="00 100 600 200"><g clip-path="url(#d)"><path stroke-width=".375" fill="none" stroke="#d3d3d3" d="M71.25 87.75h468v225h-468z"/></g><g clip-path="url(#i)" fill="none" stroke="#000"><path d="M159.75 211.5h18c9.938 0 18 10.08 18 22.5s-8.063 22.5-18 22.5h-18v-45zM147.75 219h12M147.75 249h12M195.75 234h12M347.25 204.75h15c10.462.405 19.815 9.172 24 22.5-4.185 13.328-13.538 22.095-24 22.5h-15c6.428-13.92 6.428-31.08 0-45zM338.25 212.25h12M338.25 242.25h12M386.25 227.25h12" stroke-width=".75"/></g><g clip-path="url(#j)"><symbol id="k"><path d="M.33.692A.3.3 0 0 0 .555.594.337.337 0 0 0 .648.35C.648.25.617.166.553.1a.307.307 0 0 0-.23-.1.306.306 0 0 0-.23.097A.35.35 0 0 0 0 .35c0 .105.036.19.107.257a.317.317 0 0 0 .224.086M.32.657A.175.175 0 0 1 .18.59C.134.536.112.456.112.35c0-.108.023-.192.07-.25a.171.171 0 0 1 .14-.066c.062 0 .113.024.154.072.04.049.06.125.06.23C.537.45.515.535.47.59A.18.18 0 0 1 .32.657z"/></symbol><symbol id="l"><path d="M.659 0H.482L.258.31.218.309h-.03V.118C.188.076.193.05.202.04.215.025.233.018.258.018h.026V0H0v.018h.025c.028 0 .048.01.06.027.007.01.01.034.01.072v.428c0 .042-.004.067-.013.078C.069.637.05.644.025.644H0v.018h.241c.07 0 .122-.005.155-.016A.174.174 0 0 0 .481.59.146.146 0 0 0 .517.492a.154.154 0 0 0-.04-.106.223.223 0 0 0-.123-.064L.49.132A.34.34 0 0 1 .57.045.203.203 0 0 1 .66.018V0m-.47.34a.23.23 0 0 0 .016 0h.01C.28.34.327.354.359.38a.131.131 0 0 1 .049.105.135.135 0 0 1-.04.1.138.138 0 0 1-.102.04.43.43 0 0 1-.077-.01V.34z"/></symbol><use xlink:href="#k" transform="matrix(11.25 0 0 -11.25 355.146 134.42)"/><use xlink:href="#l" transform="matrix(11.25 0 0 -11.25 363.065 134.25)"/><symbol id="m"><path d="M.45.222H.193L.148.117A.165.165 0 0 1 .132.06c0-.01.005-.02.014-.027C.156.025.176.02.208.018V0H0v.018c.028.005.046.011.054.02a.3.3 0 0 1 .055.094l.233.545h.017l.23-.55A.258.258 0 0 1 .64.04.105.105 0 0 1 .704.018V0H.442v.018C.468.02.486.024.495.031.505.04.51.048.51.06a.202.202 0 0 1-.02.067L.45.222M.437.258.324.525.208.258h.228z"/></symbol><symbol id="n"><path d="M0 .673h.18L.584.176v.382c0 .04-.004.066-.013.076C.559.648.54.654.514.654H.49v.019h.23V.655H.698C.67.655.65.646.638.629.631.62.628.595.628.56V0H.61L.173.533V.125C.173.085.178.06.187.05.199.036.217.03.244.03h.023V.01h-.23v.018H.06c.028 0 .048.008.06.025.007.01.01.034.01.071v.46A.292.292 0 0 1 .086.63a.156.156 0 0 1-.043.02A.156.156 0 0 1 0 .655v.018z"/></symbol><symbol id="o"><path d="M0 0v.018h.025c.028 0 .048.009.06.027.007.01.01.035.01.072v.428c0 .041-.004.067-.013.078C.069.637.05.644.025.644H0v.018h.27A.587.587 0 0 0 .495.628.267.267 0 0 0 .62.516.345.345 0 0 0 .667.334a.331.331 0 0 0-.084-.23C.52.034.424 0 .296 0H0m.189.048A.499.499 0 0 1 .293.034c.075 0 .138.027.188.08.05.053.075.125.075.216A.302.302 0 0 1 .48.546a.252.252 0 0 1-.192.079.415.415 0 0 1-.1-.014V.048z"/></symbol><use xlink:href="#m" transform="matrix(11.25 0 0 -11.25 163.588 146.25)"/><use xlink:href="#n" transform="matrix(11.25 0 0 -11.25 171.474 146.37)"/><use xlink:href="#o" transform="matrix(11.25 0 0 -11.25 179.937 146.25)"/><symbol id="p"><path transform="matrix(.001 0 0 -.001 -.052 .003)" d="m52-647 3 24c23-9 34-12 45-12 47 0 83 46 124 158 24 67 63 204 62 220 0 0 0 3-1 6l-21 126c-17 91-18 94-58 97l-48 3-4 28 53-1c47-1 70-2 86-2l97 3h26l3-28-49-3c-27-2-36-9-36-29 0-6 1-16 2-21l26-168c9-55 74-173 148-266 58-74 100-104 159-114l6-71c-73 19-126 61-201 161-61 84-100 152-128 226-75-306-123-394-215-395-3 3-41 33-64 47l-15 11z"/></symbol><use xlink:href="#p" transform="matrix(12.75 0 0 -12.75 150.663 179.288)"/><symbol id="q"><path transform="matrix(.001 0 0 -.001 -.065 -.134)" d="M604-347v-59H65v59h539zm0 213v-59H65v59h539z"/></symbol><use xlink:href="#q" transform="matrix(12.75 0 0 -12.75 163.145 177.542)"/><symbol id="r"><path transform="matrix(.001 0 0 -.001 -.028 .003)" d="M567-55c0 16-15 25-43 27l-44 3V3c102-3 102-3 122-3s20 0 122 3v-28l-26-3c-47-7-48-7-56-52l-87-625h-46L136-112c-36 56-54 72-88 80l-20 5V3c92-3 92-3 112-3 19 0 21 0 107 3v-28l-52-3c-16-1-31-10-31-19 0-8 7-22 26-55l102-175h246l25 188v3c0 2 4 17 4 31zm-71-546 37 288H317l179-288z"/></symbol><use xlink:href="#r" transform="matrix(12.75 0 0 -12.75 175.013 179.288)"/><symbol id="s"><path transform="matrix(.001 0 0 -.001 -.067 -.203)" d="M124-319c-30 0-57 28-57 58s27 58 56 58c32 0 60-27 60-57 0-31-28-59-59-59z"/></symbol><use xlink:href="#s" transform="matrix(12.75 0 0 -12.75 187.64 176.662)"/><symbol id="t"><path transform="matrix(.001 0 0 -.001 -.026 .006)" d="M543-227c0-110-84-126-166-138 57-20 82-32 113-60 46-39 69-86 69-137 0-82-58-130-158-130-2 0-12 0-27 1l-63 1c-12 1-48 1-60 1-19 0-50-1-99-2l-52-1-3 28 53 2c24 1 35 9 35 27 0 14-4 46-9 76L89-55c-4 18-16 25-58 32L26 3l37-1c27-2 42-2 54-2 11 0 37 1 63 2l37 1 20 1c19 1 32 2 40 2 115 0 266-93 266-233zM166-41l51-299h85c103 0 153 42 153 129 0 103-73 177-173 177-54 0-75-4-116-7zm186-614c81 0 121 36 121 111 0 105-74 168-198 168h-52l49-274c16 0 57-5 80-5z"/></symbol><use xlink:href="#t" transform="matrix(12.75 0 0 -12.75 192.835 179.327)"/><use xlink:href="#p" transform="matrix(12.75 0 0 -12.75 335.163 174.038)"/><use xlink:href="#q" transform="matrix(12.75 0 0 -12.75 347.645 172.292)"/><use xlink:href="#r" transform="matrix(12.75 0 0 -12.75 359.513 174.038)"/><symbol id="u"><path transform="matrix(.001 0 0 -.001 -.065 0)" d="M604-241v-59H364v-238h-59v238H65v59h240V0h59v-241h240z"/></symbol><use xlink:href="#u" transform="matrix(12.75 0 0 -12.75 372.114 174)"/><use xlink:href="#t" transform="matrix(12.75 0 0 -12.75 382.68 174.077)"/></g></svg>