<svg xmlns="http://www.w3.org/2000/svg" xmlns:xlink="http://www.w3.org/1999/xlink" width="842pt" height="693.627" viewBox="0 100 842 495.22"><symbol id="q"><path d="M.01.548A.268.268 0 0 0 .082.65a.162.162 0 0 0 .107.036.149.149 0 0 0 .123-.051.127.127 0 0 0 .032-.083c0-.048-.03-.098-.091-.15A.197.197 0 0 0 .345.336.177.177 0 0 0 .376.231.22.22 0 0 0 .322.082C.274.027.205 0 .115 0 .071 0 .04.006.024.017.008.027 0 .04 0 .052c0 .01.004.018.011.025a.04.04 0 0 0 .028.01.084.084 0 0 0 .025-.003.285.285 0 0 0 .038-.018.245.245 0 0 1 .04-.018.135.135 0 0 1 .039-.006c.033 0 .062.013.086.04a.127.127 0 0 1 .037.09A.176.176 0 0 1 .26.29a.199.199 0 0 1-.057.035.184.184 0 0 1-.075.016H.111v.015a.2.2 0 0 1 .077.028.147.147 0 0 1 .057.055.145.145 0 0 1 .018.07.108.108 0 0 1-.11.113C.103.621.06.594.026.54L.01.548z"/></symbol><symbol id="r"><path d="M.386.674.348.59h-.2L.106.502A.349.349 0 0 0 .311.406.216.216 0 0 0 .375.25.22.22 0 0 0 .354.153.257.257 0 0 0 .229.027.264.264 0 0 0 .114 0C.074 0 .045.007.027.02.009.034 0 .049 0 .065c0 .01.004.017.011.024a.04.04 0 0 0 .029.01.056.056 0 0 0 .022-.003.198.198 0 0 0 .032-.02A.13.13 0 0 1 .168.05c.039 0 .072.015.1.043A.144.144 0 0 1 .313.2c0 .04-.013.077-.039.112a.247.247 0 0 1-.106.08.432.432 0 0 1-.145.026l.127.257h.237z"/></symbol><use xlink:href="#q" transform="matrix(16.02 0 0 -16.02 745.84 559.748)"/><use xlink:href="#r" transform="matrix(16.02 0 0 -16.02 753.998 559.748)"/><symbol id="s"><path d="m.235.677.327-.41V.55c0 .04-.006.067-.018.08C.53.652.503.66.466.66v.018h.219V.66A.164.164 0 0 1 .628.645.056.056 0 0 1 .605.617.193.193 0 0 1 .598.551V0H.58L.133.551v-.42C.133.091.142.066.16.052a.097.097 0 0 1 .06-.02h.016V.015H0v.018c.036 0 .062.008.076.023C.09.07.098.096.098.13v.468L.083.615A.129.129 0 0 1 .046.65.112.112 0 0 1 0 .66v.017h.235z"/></symbol><symbol id="t"><path d="m.457.226.18.436h.269V.644H.884a.093.093 0 0 1-.047-.01.048.048 0 0 1-.02-.023A.199.199 0 0 1 .814.55V.113C.813.08.814.058.818.05A.05.05 0 0 1 .84.027.091.091 0 0 1 .884.018h.022V0H.56v.018h.022c.02 0 .035.003.046.01a.048.048 0 0 1 .02.024.201.201 0 0 1 .005.061v.491L.4 0H.388L.13.6V.133c0-.032 0-.052.002-.06A.071.071 0 0 1 .16.033C.174.023.196.018.227.018V0H0v.018h.007c.014 0 .028.002.04.007a.068.068 0 0 1 .03.02c.006.009.011.02.015.036V.55a.21.21 0 0 1-.005.062.048.048 0 0 1-.022.022.087.087 0 0 1-.044.01H0v.018h.27L.458.226z"/></symbol><use xlink:href="#s" transform="matrix(24 0 0 -24 151.95 503.703)"/><use xlink:href="#t" transform="matrix(24 0 0 -24 169.426 503.34)"/><symbol id="u"><path d="M.252.318V.113C.252.08.254.058.258.05A.053.053 0 0 1 .28.027.091.091 0 0 1 .324.018h.022V0H0v.018h.022c.02 0 .035.003.046.01a.044.044 0 0 1 .02.024.201.201 0 0 1 .005.061V.55a.218.218 0 0 1-.005.063.048.048 0 0 1-.022.022.085.085 0 0 1-.044.01H0v.018h.346V.644H.324a.092.092 0 0 1-.046-.01.047.047 0 0 1-.02-.024A.201.201 0 0 1 .252.55V.36h.234V.55a.218.218 0 0 1-.005.063.048.048 0 0 1-.022.022.087.087 0 0 1-.044.01H.393v.018H.74V.644H.717a.09.09 0 0 1-.046-.01A.047.047 0 0 1 .65.61.201.201 0 0 1 .646.55V.113C.646.08.647.058.65.05A.05.05 0 0 1 .673.027.091.091 0 0 1 .717.018H.74V0H.393v.018h.022a.09.09 0 0 1 .046.01.047.047 0 0 1 .02.024.201.201 0 0 1 .005.061v.205H.252z"/></symbol><use xlink:href="#u" transform="matrix(16.02 0 0 -16.02 191.967 509.28)"/><symbol id="v"><path d="M0 .223h.534V.16H0v.063m0-.16h.534V0H0v.063z"/></symbol><use xlink:href="#v" transform="matrix(24 0 0 -24 208.6 498.102)"/><use xlink:href="#s" transform="matrix(24 0 0 -24 226.055 503.703)"/><use xlink:href="#t" transform="matrix(24 0 0 -24 243.531 503.34)"/><symbol id="w"><path d="M.613.232.588 0H0v.018h.022c.02 0 .035.003.046.01a.044.044 0 0 1 .02.024.201.201 0 0 1 .005.061V.55a.218.218 0 0 1-.005.063.048.048 0 0 1-.022.022.085.085 0 0 1-.044.01H0v.018h.353V.644H.324a.092.092 0 0 1-.046-.01.047.047 0 0 1-.02-.024A.201.201 0 0 1 .252.55V.127c0-.034.002-.056.006-.065a.04.04 0 0 1 .023-.02.232.232 0 0 1 .06-.005h.055C.43.037.46.043.483.056a.162.162 0 0 1 .06.058.468.468 0 0 1 .05.118h.02z"/></symbol><use xlink:href="#w" transform="matrix(16.02 0 0 -16.02 266.028 509.28)"/><symbol id="x"><path d="M0 0z"/></symbol><symbol id="y"><path d="M.704.677V.66A.107.107 0 0 1 .64.621.595.595 0 0 1 .579.506L.35 0H.334L.107.526a.649.649 0 0 1-.055.112C.043.65.026.656 0 .66v.018h.317V.66h-.01C.278.66.258.656.248.65A.024.024 0 0 1 .237.626.07.07 0 0 1 .24.606C.243.598.252.576.267.542l.141-.33.131.294c.016.035.025.06.029.071a.111.111 0 0 1 .005.03.044.044 0 0 1-.03.044.154.154 0 0 1-.056.008v.018h.217z"/></symbol><use xlink:href="#v" transform="matrix(24 0 0 -24 282.82 498.102)"/><use xlink:href="#x" transform="matrix(24 0 0 -24 296.002 503.34)"/><use xlink:href="#y" transform="matrix(24 0 0 -24 302.16 503.703)"/><symbol id="z"><path d="M0 0v.018h.022c.02 0 .034.003.044.009.01.006.018.014.023.025a.233.233 0 0 1 .004.061V.55a.218.218 0 0 1-.005.063.048.048 0 0 1-.022.022.085.085 0 0 1-.044.01H0v.018h.296C.376.662.44.652.487.63A.281.281 0 0 0 .621.51.358.358 0 0 0 .667.33.36.36 0 0 0 .645.2.299.299 0 0 0 .586.103.29.29 0 0 0 .504.042.442.442 0 0 0 .296 0H0m.252.625V.108c0-.027.002-.044.004-.05A.028.028 0 0 1 .27.043.08.08 0 0 1 .308.036c.054 0 .095.019.124.056.04.05.059.128.059.233A.44.44 0 0 1 .45.53a.17.17 0 0 1-.082.08.316.316 0 0 1-.117.016z"/></symbol><use xlink:href="#z" transform="matrix(16.02 0 0 -16.02 319.522 509.28)"/><use xlink:href="#z" transform="matrix(16.02 0 0 -16.02 331.1 509.28)"/><symbol id="A"><path d="M.28.692.062 0H0l.218.692H.28z"/></symbol><symbol id="B"><path d="M.39 0H0v.01C.12.154.192.25.217.299a.31.31 0 0 1 .039.144c0 .034-.01.062-.032.085A.102.102 0 0 1 .146.56C.096.561.057.536.03.486L.012.492a.27.27 0 0 0 .08.139c.036.03.077.045.124.045A.183.183 0 0 0 .308.652.17.17 0 0 0 .373.588.153.153 0 0 0 .396.512.276.276 0 0 0 .36.38 1.251 1.251 0 0 0 .145.128h.143c.035 0 .058.001.068.004.01.003.02.008.026.015A.2.2 0 0 1 .41.191h.018L.39 0z"/></symbol><use xlink:href="#A" transform="matrix(24 0 0 -24 348.374 503.703)"/><use xlink:href="#x" transform="matrix(24 0 0 -24 355.018 503.34)"/><use xlink:href="#B" transform="matrix(24 0 0 -24 361.599 503.34)"/><symbol id="C"><path d="m.207 0 .408.729H.516L.18.112.097.729H0L.107 0h.1z"/></symbol><use xlink:href="#C" transform="matrix(12.586 0 0 -12.586 347.799 449.94)"/><symbol id="D"><path d="M0 0h.282a.34.34 0 0 1 .272.134.612.612 0 0 1 .116.354C.67.561.64.635.593.677a.228.228 0 0 1-.156.052H.155L0 0m.111.082.121.565h.171C.51.647.574.585.574.48A.58.58 0 0 0 .502.205.252.252 0 0 0 .283.082H.111z"/></symbol><use xlink:href="#D" transform="matrix(8.2655 0 0 -8.2655 354.666 454.08)"/><use xlink:href="#D" transform="matrix(8.2655 0 0 -8.2655 360.664 454.08)"/><path stroke-width="1.126" stroke-linecap="round" stroke-linejoin="round" fill="none" stroke="#000" d="M154.911 199.56v225.42h225.48"/><path stroke-width=".375" stroke-linecap="round" stroke-linejoin="round" fill="none" stroke="#000" d="M147.771 227.76h7.14M352.191 424.98v7.14"/><use xlink:href="#C" transform="matrix(12.586 0 0 -12.586 384.219 428.76)"/><symbol id="E"><path d="M.173 0A.879.879 0 0 0 .05.215a.668.668 0 0 0-.012.477c.029.083.074.165.135.246h.063A1.685 1.685 0 0 1 .158.793.792.792 0 0 1 .09.47C.09.313.14.156.236 0H.173z"/></symbol><use xlink:href="#E" transform="matrix(12.586 0 0 -12.586 391.113 431.409)"/><symbol id="F"><path d="M.507.219.534 0h.102L.535.729h-.12L0 0h.099l.123.219h.285m-.01.078H.266L.457.63l.04-.333z"/></symbol><use xlink:href="#F" transform="matrix(12.586 0 0 -12.586 394.704 428.76)"/><symbol id="G"><path d="M.063 0H0a.881.881 0 0 1 .146.47.802.802 0 0 1-.067.322A1.65 1.65 0 0 1 0 .938h.063A.936.936 0 0 0 .199.692.664.664 0 0 0 .186.215.888.888 0 0 0 .063 0z"/></symbol><use xlink:href="#G" transform="matrix(12.586 0 0 -12.586 403.713 431.409)"/><use xlink:href="#C" transform="matrix(12.586 0 0 -12.586 141.038 192.779)"/><use xlink:href="#E" transform="matrix(12.586 0 0 -12.586 147.932 195.428)"/><symbol id="H"><path d="m.28.286.368.443H.537L.248.372.112.729H0L.186.286.125 0h.094L.28.286z"/></symbol><use xlink:href="#H" transform="matrix(12.586 0 0 -12.586 153.424 192.779)"/><use xlink:href="#G" transform="matrix(12.586 0 0 -12.586 160.532 195.428)"/><use xlink:href="#C" transform="matrix(12.586 0 0 -12.586 97.478 231.48)"/><symbol id="I"><path d="M.433.764A.387.387 0 0 1 .142.637.516.516 0 0 1 0 .286C0 .199.027.123.073.077A.309.309 0 0 1 .287 0c.094 0 .179.027.244.077.117.09.193.252.193.41a.294.294 0 0 1-.072.2.308.308 0 0 1-.219.077M.421.683A.212.212 0 0 0 .587.611.226.226 0 0 0 .628.469.456.456 0 0 0 .544.208.299.299 0 0 0 .3.081a.212.212 0 0 0-.163.072.225.225 0 0 0-.041.141c0 .092.031.189.084.263a.3.3 0 0 0 .241.126z"/></symbol><symbol id="J"><path d="M.538.332.467 0h.094l.155.729H.622L.555.414H.182l.067.315H.155L0 0h.094l.071.332h.373z"/></symbol><use xlink:href="#I" transform="matrix(8.2655 0 0 -8.2655 104.47 235.81)"/><use xlink:href="#J" transform="matrix(8.2655 0 0 -8.2655 110.658 235.62)"/><use xlink:href="#C" transform="matrix(12.586 0 0 -12.586 125.859 231.48)"/><use xlink:href="#D" transform="matrix(8.2655 0 0 -8.2655 132.726 235.62)"/><use xlink:href="#D" transform="matrix(8.2655 0 0 -8.2655 138.724 235.62)"/><use xlink:href="#C" transform="matrix(12.586 0 0 -12.586 119.259 432.3)"/><symbol id="K"><path d="M.249.729H.155L0 0h.454l.017.082h-.36l.138.647z"/></symbol><use xlink:href="#I" transform="matrix(8.2655 0 0 -8.2655 126.25 436.63)"/><use xlink:href="#K" transform="matrix(8.2655 0 0 -8.2655 132.473 436.44)"/><use xlink:href="#C" transform="matrix(12.586 0 0 -12.586 250.059 467.64)"/><symbol id="L"><path d="M.249.729H.155L0 0h.094l.155.729z"/></symbol><use xlink:href="#L" transform="matrix(8.2655 0 0 -8.2655 257.017 471.78)"/><use xlink:href="#K" transform="matrix(8.2655 0 0 -8.2655 259.074 471.78)"/><symbol id="M"><path d="M.054.253.032.15h.059C.077.068.056.041.008.041L0 .003C.066 0 .116.049.133.134l.026.119H.054z"/></symbol><use xlink:href="#M" transform="matrix(12.586 0 0 -12.586 263.663 469.528)"/><use xlink:href="#C" transform="matrix(12.586 0 0 -12.586 272.261 467.64)"/><use xlink:href="#L" transform="matrix(8.2655 0 0 -8.2655 279.157 471.78)"/><use xlink:href="#J" transform="matrix(8.2655 0 0 -8.2655 281.298 471.78)"/><symbol id="N"><path d="M0 .365C0 .45.009.518.026.57a.257.257 0 0 0 .078.12.2.2 0 0 0 .13.042.21.21 0 0 0 .1-.023A.19.19 0 0 0 .406.64.355.355 0 0 0 .451.534.704.704 0 0 0 .467.365.66.66 0 0 0 .44.162a.255.255 0 0 0-.078-.12A.198.198 0 0 0 .233 0a.196.196 0 0 0-.162.074C.024.134 0 .231 0 .365m.09 0C.09.248.104.17.131.13.16.092.193.072.233.072c.04 0 .075.02.102.059.028.039.041.117.041.234C.376.483.363.561.335.6.308.64.273.658.232.658A.113.113 0 0 1 .136.607C.106.563.09.483.09.365z"/></symbol><use xlink:href="#N" transform="matrix(12.586 0 0 -12.586 146.613 436.054)"/><path d="M376.851 185.46v28.2l28.14-14.1-28.14-14.1z" fill="#fff" fill-rule="evenodd"/><path stroke-width=".375" stroke-linecap="round" stroke-linejoin="round" fill="none" stroke="#000" d="M376.851 185.46v28.2l28.14-14.1-28.14-14.1zM369.891 199.56h6.96M404.991 199.56h14.28"/><use xlink:href="#F" transform="matrix(12.586 0 0 -12.586 358.824 203.34)"/><use xlink:href="#H" transform="matrix(12.586 0 0 -12.586 424.025 203.34)"/><use xlink:href="#C" transform="matrix(12.586 0 0 -12.586 672.1 449.941)"/><use xlink:href="#D" transform="matrix(8.2655 0 0 -8.2655 678.966 454.08)"/><use xlink:href="#D" transform="matrix(8.2655 0 0 -8.2655 685.025 454.08)"/><path stroke-width="1.126" stroke-linecap="round" stroke-linejoin="round" fill="none" stroke="#000" d="M479.031 199.56v225.42h225.72"/><path stroke-width=".375" stroke-linecap="round" stroke-linejoin="round" fill="none" stroke="#000" d="M472.131 227.76h6.9M472.131 238.26h6.9M676.551 424.98v7.14M472.131 396.78h6.9M623.931 238.44h-.72M622.431 238.44h-.72M620.931 238.44h-.72M619.431 238.44h-.78M617.931 238.44h-.78M616.431 238.44h-.78M614.931 238.44h-.78M613.431 238.44h-.78M611.931 238.44h-.78M610.431 238.44h-.78M608.931 238.44h-.78M607.431 238.44h-.78M605.931 238.44h-.78M604.371 238.44h-.72M602.871 238.44h-.72M601.371 238.44h-.72M599.871 238.44h-.72M598.371 238.44h-.72M596.871 238.44h-.72M595.371 238.44h-.72M593.871 238.44h-.72M592.371 238.44h-.78M590.871 238.44h-.78M589.371 238.44h-.78M587.871 238.44h-.78M586.371 238.44h-.78M584.871 238.44h-.78M583.371 238.44h-.78M581.871 238.44h-.78M580.371 238.44h-.78M578.871 238.44h-.78M577.311 238.44h-.72M575.811 238.44h-.72M574.311 238.44h-.72M572.811 238.44h-.72M571.311 238.44h-.72M569.811 238.44h-.72M568.311 238.44h-.72M566.811 238.44h-.72M565.311 238.44h-.78M563.811 238.44h-.78M562.311 238.44h-.78M560.811 238.44h-.78M559.311 238.44h-.78M557.811 238.44h-.78M556.311 238.44h-.78M554.811 238.44h-.78M553.311 238.44h-.78M551.751 238.44l-.72-.18M550.251 238.26h-.72M548.751 238.26h-.72M547.251 238.26h-.72M545.751 238.26h-.72M544.251 238.26h-.72M542.751 238.26h-.72M541.251 238.26h-.72M539.751 238.26h-.72M538.251 238.26h-.78M536.751 238.26h-.78M535.251 238.26h-.78M533.751 238.26h-.78M532.251 238.26h-.78M530.751 238.26h-.78M529.251 238.26h-.78M527.751 238.26h-.78M526.251 238.26h-.78M524.691 238.26h-.72M523.191 238.26h-.72M521.691 238.26h-.72M520.191 238.26h-.72M518.691 238.26h-.72M517.191 238.26h-.72M515.691 238.26h-.72M514.191 238.26h-.72M512.691 238.26h-.72M511.191 238.26h-.78M509.691 238.26h-.78M508.191 238.26h-.78M506.691 238.26h-.78M505.191 238.26h-.78M503.691 238.26h-.78M502.191 238.26h-.78M500.691 238.26h-.78M499.191 238.26h-.78M497.631 238.26h-.72M496.131 238.26h-.72M494.631 238.26h-.72M493.131 238.26h-.72M491.631 238.26h-.72M490.131 238.26h-.72M488.631 238.26h-.72M487.131 238.26h-.72M485.631 238.26h-.72M484.131 238.26h-.78M482.631 238.26h-.78M481.131 238.26h-.78M479.631 238.26h-.6M592.731 396.6h-.72M591.231 396.6h-.72M589.731 396.6h-.72M588.231 396.6h-.72M586.731 396.6h-.72M585.231 396.6h-.78M583.731 396.6h-.78M582.231 396.6h-.78M580.731 396.6h-.78M579.231 396.6h-.78M577.731 396.6h-.78M576.231 396.6h-.78M574.731 396.6h-.78M573.231 396.6h-.78M571.671 396.6h-.72M570.171 396.6h-.72M568.671 396.6h-.72M567.171 396.6h-.72M565.671 396.6h-.72M564.171 396.6h-.72M562.671 396.6h-.72M561.171 396.6h-.72M559.671 396.6h-.72M558.171 396.6h-.78M556.671 396.6h-.78M555.171 396.6h-.78M553.671 396.6h-.78M552.171 396.6h-.78M550.671 396.6h-.78M549.171 396.6h-.78M547.671 396.6h-.78M546.171 396.6h-.78M544.611 396.6h-.72M543.111 396.6h-.72M541.611 396.6h-.72M540.111 396.6h-.72M538.611 396.6h-.72M537.111 396.6h-.72M535.611 396.78h-.72M534.111 396.78h-.72M532.611 396.78h-.72M531.111 396.78h-.78M529.611 396.78h-.78M528.111 396.78h-.78M526.611 396.78h-.78M525.111 396.78h-.78M523.611 396.78h-.78M522.111 396.78h-.78M520.611 396.78h-.78M519.111 396.78h-.78M517.551 396.78h-.72M516.051 396.78h-.72M514.551 396.78h-.72M513.051 396.78h-.72M511.551 396.78h-.72M510.051 396.78h-.72M508.551 396.78h-.72M507.051 396.78h-.72M505.551 396.78h-.78M504.051 396.78h-.78M502.551 396.78h-.78M501.051 396.78h-.78M499.551 396.78h-.78M498.051 396.78h-.78M496.551 396.78h-.78M495.051 396.78h-.78M493.551 396.78h-.78M492.051 396.78h-.78M490.491 396.78h-.72M488.991 396.78h-.72M487.491 396.78h-.72M485.991 396.78h-.72M484.491 396.78h-.72M482.991 396.78h-.72M481.491 396.78h-.72M479.991 396.78h-.72M623.931 238.26v.72M623.931 239.76v.78M623.931 241.26v.78M623.931 242.76v.78M623.931 244.26v.78M623.931 245.76v.78M623.931 247.26v.78M623.931 248.76v.78M623.931 250.26v.78M623.931 251.76v.78M623.931 253.26v.78M623.931 254.76v.78M623.931 256.32v.72M623.931 257.82v.72M623.931 259.32v.72M623.931 260.82v.72M623.931 262.32v.72M623.931 263.82v.72M623.931 265.32v.72M623.931 266.82v.72M623.931 268.32v.72M623.931 269.82v.72M623.931 271.32v.78M623.931 272.82v.78M623.931 274.32v.78M623.931 275.82v.78M623.931 277.32v.78M623.931 278.82v.78M623.931 280.32v.78M623.931 281.82v.78M623.931 283.32v.78M623.931 284.82v.78M623.931 286.32v.78M623.931 287.88v.72M623.931 289.38v.72M623.931 290.88v.72M623.931 292.38v.72M623.931 293.88v.72M623.931 295.38v.72M623.931 296.88v.72M623.931 298.38v.72M623.931 299.88v.72M623.931 301.38v.72M623.931 302.88v.72M623.931 304.38v.78M623.931 305.88v.78M623.931 307.38v.78M623.931 308.88v.78M623.931 310.38v.78M623.931 311.88v.78M623.931 313.38v.78M623.931 314.88v.78M623.931 316.38v.78M623.931 317.88v.78M623.931 319.38v.78M623.931 320.94v.72M623.931 322.44v.72M623.931 323.94v.72M623.931 325.44v.72M623.931 326.94v.72M623.931 328.44v.72M623.931 329.94v.72M623.931 331.44v.72M623.931 332.94v.72M623.931 334.44v.72M623.931 335.94v.78M623.931 337.44v.78M623.931 338.94v.78M623.931 340.44v.78M623.931 341.94v.78M623.931 343.44v.78M623.931 344.94v.78M623.931 346.44v.78M623.931 347.94v.78M623.931 349.44v.78M623.931 350.94v.78M623.931 352.5v.72M623.931 354v.72M623.931 355.5v.72M623.931 357v.72M623.931 358.5v.72M623.931 360v.72M623.931 361.5v.72M623.931 363v.72M623.931 364.5v.72M623.931 366v.72M623.931 367.5v.78M623.931 369v.78M623.931 370.5v.78M623.931 372v.78M623.931 373.5v.78M623.931 375v.78M623.931 376.5v.78M623.931 378v.78M623.931 379.5v.78M623.931 381v.78M623.931 382.5v.78M623.931 384.06v.72M623.931 385.56v.72M623.931 387.06v.72M623.931 388.56v.72M623.931 390.06v.72M623.931 391.56v.72M623.931 393.06v.72M623.931 394.56v.72M623.931 396.06v.72M623.931 397.56v.72M623.931 399.06v.78M623.931 400.56v.78M623.931 402.06v.78M623.931 403.56v.78M623.931 405.06v.78M623.931 406.56v.78M623.931 408.06v.78M623.931 409.56v.78M623.931 411.06v.78M623.931 412.56v.78M623.931 414.06v.78M623.931 415.56v.78M623.931 417.12v.72M623.931 418.62v.72M623.931 420.12v.72M623.931 421.62v.72M623.931 423.12v.72M623.931 424.62v.36M592.551 424.98v7.14"/><use xlink:href="#C" transform="matrix(12.586 0 0 -12.586 708.399 428.76)"/><use xlink:href="#E" transform="matrix(12.586 0 0 -12.586 715.293 431.409)"/><use xlink:href="#F" transform="matrix(12.586 0 0 -12.586 718.884 428.76)"/><use xlink:href="#G" transform="matrix(12.586 0 0 -12.586 727.893 431.409)"/><use xlink:href="#C" transform="matrix(12.586 0 0 -12.586 465.219 192.779)"/><use xlink:href="#E" transform="matrix(12.586 0 0 -12.586 472.112 195.428)"/><use xlink:href="#H" transform="matrix(12.586 0 0 -12.586 477.604 192.779)"/><use xlink:href="#G" transform="matrix(12.586 0 0 -12.586 484.712 195.428)"/><use xlink:href="#C" transform="matrix(12.586 0 0 -12.586 449.798 242.04)"/><use xlink:href="#I" transform="matrix(8.2655 0 0 -8.2655 456.79 246.31)"/><use xlink:href="#J" transform="matrix(8.2655 0 0 -8.2655 463.038 246.12)"/><use xlink:href="#C" transform="matrix(12.586 0 0 -12.586 449.979 226.26)"/><use xlink:href="#D" transform="matrix(8.2655 0 0 -8.2655 456.846 230.34)"/><use xlink:href="#D" transform="matrix(8.2655 0 0 -8.2655 462.905 230.34)"/><use xlink:href="#C" transform="matrix(12.586 0 0 -12.586 450.579 400.56)"/><use xlink:href="#I" transform="matrix(8.2655 0 0 -8.2655 457.57 404.89)"/><use xlink:href="#K" transform="matrix(8.2655 0 0 -8.2655 463.733 404.7)"/><use xlink:href="#C" transform="matrix(12.586 0 0 -12.586 586.599 449.94)"/><use xlink:href="#L" transform="matrix(8.2655 0 0 -8.2655 593.557 454.08)"/><use xlink:href="#K" transform="matrix(8.2655 0 0 -8.2655 595.673 454.08)"/><use xlink:href="#C" transform="matrix(12.586 0 0 -12.586 614.079 449.94)"/><use xlink:href="#L" transform="matrix(8.2655 0 0 -8.2655 621.037 454.08)"/><use xlink:href="#J" transform="matrix(8.2655 0 0 -8.2655 623.118 454.08)"/><symbol id="O"><path d="M.468.728h.095V.314a.49.49 0 0 0-.024-.17A.21.21 0 0 0 .45.04.312.312 0 0 0 .283 0 .344.344 0 0 0 .12.035a.198.198 0 0 0-.092.1.48.48 0 0 0-.027.18v.413h.095V.315A.41.41 0 0 1 .112.177.133.133 0 0 1 .172.11.208.208 0 0 1 .274.085c.07 0 .12.016.149.048.03.031.044.092.044.182v.413z"/></symbol><symbol id="P"><path d="M0 0v.519h.08V.445A.186.186 0 0 0 .243.53C.275.53.304.525.33.513A.134.134 0 0 0 .39.47.17.17 0 0 0 .416.404.503.503 0 0 0 .42.32V0H.333v.315a.235.235 0 0 1-.01.08.083.083 0 0 1-.036.043.113.113 0 0 1-.061.016.143.143 0 0 1-.098-.036C.101.395.088.35.088.283V0H0z"/></symbol><symbol id="Q"><path d="M0 .615v.1h.088v-.1H0M0 0v.519h.088V0H0z"/></symbol><symbol id="R"><path d="M.24.085.253.008A.326.326 0 0 0 .187 0a.15.15 0 0 0-.075.015.085.085 0 0 0-.037.04.317.317 0 0 0-.01.104v.298H0v.068h.064v.129l.088.053V.525H.24V.457H.152V.154c0-.025.001-.041.004-.049A.038.038 0 0 1 .171.088a.06.06 0 0 1 .03-.006l.04.003z"/></symbol><symbol id="S"><path d="m.046.01-.01.083a.196.196 0 0 1 .05-.008c.02 0 .036.004.047.01a.08.08 0 0 1 .03.028.431.431 0 0 1 .034.086L0 .73h.095l.108-.3C.217.39.229.35.24.309c.01.04.022.08.036.118l.111.302h.088L.278.202a1.035 1.035 0 0 0-.05-.118.171.171 0 0 0-.053-.063A.126.126 0 0 0 .103 0a.176.176 0 0 0-.057.01z"/></symbol><symbol id="T"><path d="M0 0z"/></symbol><symbol id="U"><path d="M.359.293v.084h.303V.112A.54.54 0 0 0 .518.028a.43.43 0 0 0-.344.017.3.3 0 0 0-.13.13.444.444 0 0 0 0 .386c.029.061.07.106.125.135.055.03.118.044.19.044a.37.37 0 0 0 .14-.025.23.23 0 0 0 .098-.07.31.31 0 0 0 .054-.117L.566.504a.264.264 0 0 1-.04.086.162.162 0 0 1-.068.05.287.287 0 0 1-.21-.001.21.21 0 0 1-.123-.122.375.375 0 0 1-.027-.144c0-.064.01-.118.032-.16A.212.212 0 0 1 .227.116.297.297 0 0 1 .36.085.32.32 0 0 1 .48.11c.04.016.07.033.09.05v.134H.358z"/></symbol><symbol id="V"><path d="M.368.076A.27.27 0 0 0 .178 0C.12 0 .075.014.045.042A.139.139 0 0 0 0 .148a.142.142 0 0 0 .063.12c.018.013.04.023.063.03A.628.628 0 0 0 .204.31a.803.803 0 0 1 .157.03v.023C.361.4.353.424.336.439.314.46.281.47.236.47.195.47.164.462.145.447.125.433.11.407.1.371L.015.382a.21.21 0 0 0 .039.09c.018.022.043.04.077.051A.342.342 0 0 0 .25.542c.044 0 .08-.005.108-.016a.141.141 0 0 0 .061-.04.136.136 0 0 0 .027-.059.495.495 0 0 0 .005-.08V.228C.45.147.45.096.455.074A.2.2 0 0 1 .478.012H.386a.186.186 0 0 0-.018.064M.361.272A.645.645 0 0 0 .217.239.332.332 0 0 1 .141.22a.076.076 0 0 1-.047-.07C.094.127.103.108.12.092.138.077.164.07.198.07s.064.007.09.022a.138.138 0 0 1 .059.06c.01.02.014.05.014.089v.032z"/></symbol><symbol id="W"><path d="M0 0v.716h.27A.652.652 0 0 0 .379.709.214.214 0 0 0 .467.675.172.172 0 0 0 .524.606.217.217 0 0 0 .546.51.22.22 0 0 0 .488.354C.45.312.38.291.278.291H.095V0H0m.095.375H.28C.34.375.384.387.41.41A.122.122 0 0 1 .45.506C.449.536.44.56.426.583a.105.105 0 0 1-.06.042.405.405 0 0 1-.088.006H.095V.375z"/></symbol><symbol id="X"><path d="M0 .271c0 .096.027.167.08.213a.241.241 0 0 0 .163.058c.071 0 .13-.023.175-.07A.266.266 0 0 0 .486.278C.486.212.476.16.456.121A.211.211 0 0 0 .368.03.253.253 0 0 0 .243 0a.234.234 0 0 0-.176.07C.022.116 0 .183 0 .27m.09 0c0-.066.015-.116.044-.15a.14.14 0 0 1 .11-.049c.043 0 .08.017.108.05.029.033.044.084.044.152C.396.338.38.387.352.419a.138.138 0 0 1-.109.05.14.14 0 0 1-.11-.05C.106.388.09.338.09.272z"/></symbol><symbol id="Y"><path d="M0 .167.087.18A.122.122 0 0 1 .127.1.143.143 0 0 1 .221.072c.04 0 .07.008.09.025.02.016.03.036.03.058C.34.175.33.19.313.202a.381.381 0 0 1-.09.03.854.854 0 0 0-.134.041.134.134 0 0 0-.056.05.133.133 0 0 0-.02.07c0 .023.006.044.016.064.011.02.026.036.044.049.013.01.032.018.055.025A.298.298 0 0 0 .312.524.145.145 0 0 0 .382.477a.184.184 0 0 0 .03-.08L.325.384a.094.094 0 0 1-.034.062.123.123 0 0 1-.08.023C.172.47.144.463.126.45.108.436.1.42.1.403.1.39.103.38.11.373A.078.078 0 0 1 .144.348C.153.345.179.338.222.326.284.31.327.296.352.286A.13.13 0 0 0 .41.238.148.148 0 0 0 .405.081.166.166 0 0 0 .33.021.272.272 0 0 0 .221 0a.245.245 0 0 0-.154.042A.196.196 0 0 0 0 .167z"/></symbol><symbol id="Z"><path d="M0 .242.09.25A.201.201 0 0 1 .118.162.165.165 0 0 1 .19.106.276.276 0 0 1 .3.085c.036 0 .068.005.095.016.028.01.049.025.062.044.014.019.02.04.02.062A.092.092 0 0 1 .46.265a.144.144 0 0 1-.064.043C.375.315.333.327.267.342A.658.658 0 0 0 .13.387a.197.197 0 0 0-.077.067.166.166 0 0 0-.025.089c0 .036.01.07.031.101a.19.19 0 0 0 .09.072.34.34 0 0 0 .131.024C.332.74.38.732.42.714A.2.2 0 0 0 .513.64.217.217 0 0 0 .548.526L.458.52a.146.146 0 0 1-.05.102C.38.645.338.657.283.657.226.657.184.647.158.625a.094.094 0 0 1-.04-.076c0-.025.01-.047.028-.063A.378.378 0 0 1 .29.435.935.935 0 0 0 .448.389.216.216 0 0 0 .54.316C.56.286.57.253.57.214A.196.196 0 0 0 .537.106.217.217 0 0 0 .443.028a.414.414 0 0 0-.3 0A.23.23 0 0 0 0 .242z"/></symbol><symbol id="aa"><path d="M0 0v.716h.088V0H0z"/></symbol><symbol id="ab"><path d="M0 0v.717h.08V.65C.1.676.12.696.144.709c.024.013.053.02.086.02A.205.205 0 0 0 .348.695.21.21 0 0 0 .424.598.35.35 0 0 0 .45.462C.45.409.44.36.421.318A.215.215 0 0 0 .224.187a.167.167 0 0 0-.079.019.18.18 0 0 0-.057.046V0H0m.08.455C.08.388.093.34.12.307A.124.124 0 0 1 .218.26c.04 0 .073.017.1.05C.346.342.36.393.36.462.36.528.347.578.32.611a.122.122 0 0 1-.098.05C.185.66.152.642.122.606.095.573.08.522.08.455z"/></symbol><symbol id="ac"><path d="M.384.179.475.167a.222.222 0 0 0-.08-.123A.24.24 0 0 0 .248 0a.238.238 0 0 0-.18.07A.275.275 0 0 0 0 .267C0 .354.022.422.067.47a.228.228 0 0 0 .175.072c.07 0 .126-.024.17-.07a.281.281 0 0 0 .066-.2.82.82 0 0 0 0-.023H.09A.2.2 0 0 1 .139.118.144.144 0 0 1 .248.072c.032 0 .06.009.082.026.023.017.04.044.054.08M.096.322h.29a.176.176 0 0 1-.034.098.135.135 0 0 1-.109.05.14.14 0 0 1-.102-.04.161.161 0 0 1-.045-.108z"/></symbol><symbol id="ad"><path d="M.473.217H0V.3h.473V.217m0-.217H0v.082h.473V0z"/></symbol><symbol id="ae"><path d="M.264 0H.176v.56A.582.582 0 0 0 0 .454V.54a.53.53 0 0 1 .129.084.33.33 0 0 1 .078.096h.057V0z"/></symbol><use xlink:href="#O" transform="matrix(12.586 0 0 -12.586 651.98 371.614)"/><use xlink:href="#P" transform="matrix(12.586 0 0 -12.586 660.91 371.46)"/><use xlink:href="#Q" transform="matrix(12.586 0 0 -12.586 667.814 371.46)"/><use xlink:href="#R" transform="matrix(12.586 0 0 -12.586 669.996 371.546)"/><use xlink:href="#S" transform="matrix(12.586 0 0 -12.586 673.58 374.109)"/><use xlink:href="#T" transform="matrix(12.586 0 0 -12.586 679.557 371.46)"/><use xlink:href="#U" transform="matrix(12.586 0 0 -12.586 683.829 371.614)"/><use xlink:href="#V" transform="matrix(12.586 0 0 -12.586 693.408 371.607)"/><use xlink:href="#Q" transform="matrix(12.586 0 0 -12.586 700.747 371.46)"/><use xlink:href="#P" transform="matrix(12.586 0 0 -12.586 703.537 371.46)"/><use xlink:href="#W" transform="matrix(12.586 0 0 -12.586 663.601 386.46)"/><use xlink:href="#X" transform="matrix(12.586 0 0 -12.586 671.507 386.607)"/><use xlink:href="#Q" transform="matrix(12.586 0 0 -12.586 678.882 386.46)"/><use xlink:href="#P" transform="matrix(12.586 0 0 -12.586 681.735 386.46)"/><use xlink:href="#R" transform="matrix(12.586 0 0 -12.586 688.084 386.546)"/><use xlink:href="#Y" transform="matrix(12.586 0 0 -12.586 691.813 386.607)"/><use xlink:href="#Z" transform="matrix(12.586 0 0 -12.586 654.015 401.674)"/><use xlink:href="#aa" transform="matrix(12.586 0 0 -12.586 662.74 401.52)"/><use xlink:href="#X" transform="matrix(12.586 0 0 -12.586 665.171 401.668)"/><use xlink:href="#ab" transform="matrix(12.586 0 0 -12.586 672.54 404.022)"/><use xlink:href="#ac" transform="matrix(12.586 0 0 -12.586 679.13 401.668)"/><use xlink:href="#T" transform="matrix(12.586 0 0 -12.586 685.567 401.52)"/><use xlink:href="#ad" transform="matrix(12.586 0 0 -12.586 689.857 398.958)"/><use xlink:href="#T" transform="matrix(12.586 0 0 -12.586 696.476 401.52)"/><use xlink:href="#ae" transform="matrix(12.586 0 0 -12.586 701.436 401.52)"/><path stroke-width=".375" stroke-linecap="round" stroke-linejoin="round" fill="none" stroke="#000" d="m628.431 244.62 20.1 138.12"/><path d="m627.531 238.26 5.46 7.86-.6-.18h-.36l-.6-.18h-3.18c-.949.324-2.026.86-3 1.14l-.36.18-.6.36 3.24-9.18" fill-rule="evenodd"/><path stroke-width=".375" stroke-linecap="round" stroke-linejoin="round" fill="none" stroke="#000" d="m600.651 393.42 47.88-10.68"/><path d="m594.23 394.92 7.56-6.18-.24.54v.6l-.18.54v1.5l.18.54v.6l.24.36.18.54.18.6.18.36.18.54.18.42.42.54.18.36.36.42-9.42-2.28" fill-rule="evenodd"/><use xlink:href="#N" transform="matrix(12.586 0 0 -12.586 470.913 436.054)"/><use xlink:href="#C" transform="matrix(12.586 0 0 -12.586 250.779 446.4)"/><use xlink:href="#D" transform="matrix(8.2655 0 0 -8.2655 257.646 450.54)"/><use xlink:href="#D" transform="matrix(8.2655 0 0 -8.2655 263.705 450.54)"/><symbol id="af"><path d="M0 0z"/></symbol><symbol id="ag"><path d="M.391.749 0 0h.055l.391.749H.391z"/></symbol><symbol id="ah"><path d="M.49.086H.113c.017.05.073.102.164.148l.112.059c.134.069.199.153.199.255a.175.175 0 0 1-.042.117C.513.704.465.722.397.722.243.722.155.644.115.472h.088a.316.316 0 0 0 .042.102.167.167 0 0 0 .14.071C.455.645.5.602.5.536S.452.408.368.365L.264.311C.09.217.045.164 0 0h.471L.49.086z"/></symbol><use xlink:href="#af" transform="matrix(12.586 0 0 -12.586 268.97 446.4)"/><use xlink:href="#ag" transform="matrix(12.586 0 0 -12.586 272.361 446.652)"/><use xlink:href="#af" transform="matrix(12.586 0 0 -12.586 276.094 446.4)"/><use xlink:href="#ah" transform="matrix(12.586 0 0 -12.586 280.064 446.387)"/><path stroke-width=".375" stroke-linecap="round" stroke-linejoin="round" fill="none" stroke="#000" d="M267.651 424.98v7.14"/><path stroke-width="1.877" stroke-linecap="round" stroke-linejoin="round" fill="none" stroke="#00f" d="M648.351 227.76h28.2M479.031 424.98h28.2M598.971 382.74l14.1-119.7.36-5.04 1.14-4.92 1.68-4.68 2.4-4.5 3.06-3.96c6.51-6.799 12.631-10.266 21.96-11.82l5.1-.36M507.231 424.98l8.28-.72c20.85-1.734 77.629-13.233 83.22-38.34l.24-3.18M267.651 424.98h-112.74M267.651 424.98V227.76h84.54"/><path stroke-width="1.126" stroke-linecap="round" stroke-linejoin="round" fill="none" stroke="#000" d="m609.831 252.36 28.2-28.38M578.091 410.88l28.2-28.38"/><path stroke-width=".375" stroke-linecap="round" stroke-linejoin="round" fill="none" stroke="#000" d="M592.551 396.78v.78M592.551 398.28v.78M592.551 399.84v.72M592.551 401.34v.72M592.551 402.84v.72M592.551 404.34v.72M592.551 405.84v.72M592.551 407.34v.72M592.551 408.84v.72M592.551 410.34v.72M592.551 411.84v.72M592.551 413.34v.72M592.551 414.84v.72M592.551 416.34v.78M592.551 417.84v.78M592.551 419.34v.78M592.551 420.84v.78M592.551 422.34v.78M592.551 423.84v.78M623.931 424.98v6.96"/><symbol id="ai"><path d="M.284.018V0H0v.018h.023c.028 0 .048.008.06.024.008.01.012.035.012.075v.428A.22.22 0 0 1 .088.61a.044.044 0 0 1-.02.021.093.093 0 0 1-.045.012H0v.018h.284V.644H.26C.233.644.213.636.2.62.194.61.189.585.189.545V.117A.22.22 0 0 1 .195.051.044.044 0 0 1 .215.03.09.09 0 0 1 .26.018h.024z"/></symbol><symbol id="aj"><path d="M.314.064A.23.23 0 0 0 .25.014.157.157 0 0 0 .183 0a.167.167 0 0 0-.128.061A.229.229 0 0 0 0 .219C0 .283.02.34.06.395c.04.053.093.08.156.08.04 0 .072-.013.098-.038V.52A.633.633 0 0 1 .31.614C.308.625.304.634.3.638a.03.03 0 0 1-.02.006.103.103 0 0 1-.033-.008L.239.653l.134.055h.022V.191c0-.052 0-.085.003-.096C.4.083.404.075.41.07A.03.03 0 0 1 .429.064c.009 0 .02.003.035.008L.469.055.336 0H.314v.064m0 .034v.23A.156.156 0 0 1 .296.39.1.1 0 0 1 .257.43.092.092 0 0 1 .21.444.1.1 0 0 1 .134.406C.104.372.089.322.089.257.09.192.104.141.132.106.161.071.192.054.228.054c.03 0 .058.015.086.044z"/></symbol><symbol id="ak"><path d="M.07.292A.23.23 0 0 1 .117.136.147.147 0 0 1 .232.08c.03 0 .055.008.077.024a.18.18 0 0 1 .054.083l.015-.01a.234.234 0 0 0-.06-.122A.16.16 0 0 0 .196 0c-.053 0-.1.02-.138.063A.242.242 0 0 0 0 .23c0 .077.02.137.059.18.039.042.088.064.148.064.05 0 .09-.017.123-.05A.18.18 0 0 0 .378.292H.07m0 .029h.207a.191.191 0 0 1-.01.06.096.096 0 0 1-.037.043.09.09 0 0 1-.05.016.101.101 0 0 1-.073-.032A.136.136 0 0 1 .07.321z"/></symbol><symbol id="al"><path d="M.249.074A.737.737 0 0 0 .163.012.132.132 0 0 0 .106 0C.076 0 .05.01.03.032A.117.117 0 0 0 0 .115c0 .022.005.04.015.057a.194.194 0 0 0 .069.062c.033.02.088.044.165.072v.017c0 .045-.007.075-.021.092C.214.432.193.44.166.44A.07.07 0 0 1 .117.423.05.05 0 0 1 .1.385V.357C.1.342.097.33.089.322A.039.039 0 0 0 .058.31a.039.039 0 0 0-.03.013.05.05 0 0 0-.01.034c0 .028.013.054.042.078A.186.186 0 0 0 .18.47.21.21 0 0 0 .279.45.092.092 0 0 0 .321.402.267.267 0 0 0 .33.316V.165c0-.043 0-.07.002-.08C.334.077.336.07.34.068A.02.02 0 0 1 .353.062c.005 0 .01.001.014.003l.04.036V.074C.37.024.334 0 .301 0a.047.047 0 0 0-.038.017C.254.028.249.047.249.074m0 .031v.17a.964.964 0 0 1-.095-.04.164.164 0 0 1-.055-.046.087.087 0 0 1-.017-.05c0-.024.007-.044.021-.06A.064.064 0 0 1 .151.058C.176.057.21.073.25.105z"/></symbol><symbol id="am"><path d="M.155.694V.101c0-.028.002-.046.006-.056a.046.046 0 0 1 .02-.02.112.112 0 0 1 .047-.007V0h-.22v.018c.02 0 .035.002.042.006a.042.042 0 0 1 .018.02c.004.01.006.03.006.057v.406c0 .05 0 .082-.003.093C.069.612.065.62.06.624A.028.028 0 0 1 .04.63.091.091 0 0 1 .009.623L0 .64l.133.054h.022z"/></symbol><symbol id="an"><path d="M0 0z"/></symbol><symbol id="ao"><path d="M.445.338A.212.212 0 0 0 .548.29a.146.146 0 0 0 .048-.11.165.165 0 0 0-.032-.095A.18.18 0 0 0 .48.021.5.5 0 0 0 .313 0H0v.018h.025c.028 0 .047.009.06.026.007.012.01.036.01.073v.428c0 .04-.004.067-.013.078C.069.637.05.644.025.644H0v.018h.286A.565.565 0 0 0 .415.65.205.205 0 0 0 .526.588.152.152 0 0 0 .535.396a.178.178 0 0 0-.09-.058M.19.364A.409.409 0 0 1 .282.357c.047 0 .083.005.107.016.024.01.042.026.055.047a.132.132 0 0 1 .019.07.127.127 0 0 1-.047.098C.384.616.338.63.277.63A.332.332 0 0 1 .19.62V.364m0-.316A.492.492 0 0 1 .301.035c.06 0 .104.013.135.04C.467.1.482.133.482.172c0 .026-.007.05-.02.074a.14.14 0 0 1-.069.056.295.295 0 0 1-.117.02A1.165 1.165 0 0 1 .189.32V.048z"/></symbol><symbol id="ap"><path d="M.422.46V.19c0-.052.002-.084.004-.095C.428.083.432.075.438.07A.03.03 0 0 1 .457.064c.01 0 .021.003.034.008L.498.055.364 0H.342v.095A.407.407 0 0 0 .254.016.134.134 0 0 0 .19 0a.104.104 0 0 0-.065.021.114.114 0 0 0-.039.057.338.338 0 0 0-.01.096v.2a.098.098 0 0 1-.007.044.044.044 0 0 1-.02.019A.113.113 0 0 1 0 .443V.46h.157v-.3C.157.12.164.094.178.08A.077.077 0 0 1 .231.06c.014 0 .03.004.047.013.018.009.04.026.064.05v.254c0 .025-.005.042-.014.051C.318.438.299.442.27.443V.46h.152z"/></symbol><symbol id="aq"><path d="M.167.412V.118C.167.076.172.05.181.04A.06.06 0 0 1 .23.018H.27V0H.003v.018h.02c.013 0 .025.003.036.01A.05.05 0 0 1 .08.053a.213.213 0 0 1 .006.064v.294H0v.035h.087v.03c0 .044.007.082.021.113a.18.18 0 0 0 .165.104A.15.15 0 0 0 .368.66C.387.646.396.63.396.61A.04.04 0 0 0 .383.584.038.038 0 0 0 .356.57a.046.046 0 0 0-.024.008.138.138 0 0 0-.03.035.122.122 0 0 1-.033.036.063.063 0 0 1-.034.01.06.06 0 0 1-.038-.013.066.066 0 0 1-.023-.037.692.692 0 0 1-.007-.13V.447h.116V.412H.167z"/></symbol><symbol id="ar"><path d="M.156.46v-.1c.037.067.076.1.115.1A.062.062 0 0 0 .315.444.05.05 0 0 0 .333.406.045.045 0 0 0 .32.374.04.04 0 0 0 .29.361C.279.36.266.366.251.377.237.39.227.395.221.395.213.395.207.39.2.385A.235.235 0 0 1 .156.319V.104C.156.08.159.061.165.048A.05.05 0 0 1 .187.026.099.099 0 0 1 .234.018V0h-.23v.018c.024 0 .04.003.052.01a.042.042 0 0 1 .017.025.251.251 0 0 1 .002.048v.173a.663.663 0 0 1-.003.093.035.035 0 0 1-.012.022.032.032 0 0 1-.02.007.097.097 0 0 1-.035-.008L0 .406.135.46h.02z"/></symbol><symbol id="as"><path d="M.055.475A.051.051 0 0 0 .093.458.051.051 0 0 0 .11.42.053.053 0 0 0 .093.382.052.052 0 0 0 .055.366.053.053 0 0 0 .001.42c0 .015.005.028.016.038.01.011.023.017.038.017m0-.366A.052.052 0 0 0 .092.093.053.053 0 0 0 .109.054.053.053 0 0 0 .093.016.053.053 0 0 0 .054 0 .053.053 0 0 0 0 .054C0 .07.005.082.016.093c.01.01.023.016.038.016z"/></symbol><symbol id="at"><path d="M.659 0H.482L.258.31.218.309h-.03V.118C.188.076.193.05.202.04.215.025.233.018.258.018h.026V0H0v.018h.025c.028 0 .048.01.06.027.007.01.01.034.01.072v.428c0 .042-.004.067-.013.078C.069.637.05.644.025.644H0v.018h.241c.07 0 .122-.005.155-.016A.174.174 0 0 0 .481.59.146.146 0 0 0 .517.492a.154.154 0 0 0-.04-.106.223.223 0 0 0-.123-.064L.49.132A.34.34 0 0 1 .57.045.203.203 0 0 1 .66.018V0m-.47.34a.23.23 0 0 0 .016 0h.01C.28.34.327.354.359.38a.131.131 0 0 1 .049.105.135.135 0 0 1-.04.1.138.138 0 0 1-.102.04.43.43 0 0 1-.077-.01V.34z"/></symbol><use xlink:href="#ai" transform="matrix(21.36 0 0 -21.36 152.742 149.58)"/><use xlink:href="#aj" transform="matrix(21.36 0 0 -21.36 160.054 149.872)"/><use xlink:href="#ak" transform="matrix(21.36 0 0 -21.36 170.839 149.872)"/><use xlink:href="#al" transform="matrix(21.36 0 0 -21.36 180.313 149.778)"/><use xlink:href="#am" transform="matrix(21.36 0 0 -21.36 189.693 149.58)"/><use xlink:href="#an" transform="matrix(21.36 0 0 -21.36 195.016 149.58)"/><use xlink:href="#ao" transform="matrix(21.36 0 0 -21.36 200.732 149.58)"/><use xlink:href="#ap" transform="matrix(21.36 0 0 -21.36 214.667 149.872)"/><use xlink:href="#aq" transform="matrix(21.36 0 0 -21.36 226.171 149.58)"/><use xlink:href="#aq" transform="matrix(21.36 0 0 -21.36 232.95 149.58)"/><use xlink:href="#ak" transform="matrix(21.36 0 0 -21.36 240.054 149.872)"/><use xlink:href="#ar" transform="matrix(21.36 0 0 -21.36 248.902 149.58)"/><use xlink:href="#as" transform="matrix(21.36 0 0 -21.36 257.736 149.872)"/><use xlink:href="#an" transform="matrix(21.36 0 0 -21.36 261.86 149.58)"/><use xlink:href="#an" transform="matrix(21.36 0 0 -21.36 267.08 149.58)"/><use xlink:href="#an" transform="matrix(21.36 0 0 -21.36 272.48 149.58)"/><use xlink:href="#an" transform="matrix(21.36 0 0 -21.36 277.841 149.58)"/><use xlink:href="#an" transform="matrix(21.36 0 0 -21.36 283.203 149.58)"/><use xlink:href="#an" transform="matrix(21.36 0 0 -21.36 288.564 149.58)"/><use xlink:href="#an" transform="matrix(21.36 0 0 -21.36 293.926 149.58)"/><use xlink:href="#an" transform="matrix(21.36 0 0 -21.36 299.287 149.58)"/><use xlink:href="#an" transform="matrix(21.36 0 0 -21.36 304.648 149.58)"/><use xlink:href="#an" transform="matrix(21.36 0 0 -21.36 310.01 149.58)"/><use xlink:href="#an" transform="matrix(21.36 0 0 -21.36 315.371 149.58)"/><use xlink:href="#an" transform="matrix(21.36 0 0 -21.36 320.732 149.58)"/><use xlink:href="#an" transform="matrix(21.36 0 0 -21.36 326.094 149.58)"/><use xlink:href="#an" transform="matrix(21.36 0 0 -21.36 331.455 149.58)"/><use xlink:href="#an" transform="matrix(21.36 0 0 -21.36 336.816 149.58)"/><use xlink:href="#an" transform="matrix(21.36 0 0 -21.36 342.178 149.58)"/><use xlink:href="#an" transform="matrix(21.36 0 0 -21.36 347.54 149.58)"/><use xlink:href="#an" transform="matrix(21.36 0 0 -21.36 352.9 149.58)"/><use xlink:href="#an" transform="matrix(21.36 0 0 -21.36 358.191 149.58)"/><use xlink:href="#an" transform="matrix(21.36 0 0 -21.36 363.553 149.58)"/><use xlink:href="#an" transform="matrix(21.36 0 0 -21.36 368.914 149.58)"/><use xlink:href="#an" transform="matrix(21.36 0 0 -21.36 374.275 149.58)"/><use xlink:href="#an" transform="matrix(21.36 0 0 -21.36 379.637 149.58)"/><use xlink:href="#an" transform="matrix(21.36 0 0 -21.36 384.998 149.58)"/><use xlink:href="#an" transform="matrix(21.36 0 0 -21.36 390.36 149.58)"/><use xlink:href="#an" transform="matrix(21.36 0 0 -21.36 395.72 149.58)"/><use xlink:href="#an" transform="matrix(21.36 0 0 -21.36 401.082 149.58)"/><use xlink:href="#an" transform="matrix(21.36 0 0 -21.36 406.444 149.58)"/><use xlink:href="#an" transform="matrix(21.36 0 0 -21.36 411.805 149.58)"/><use xlink:href="#an" transform="matrix(21.36 0 0 -21.36 417.166 149.58)"/><use xlink:href="#an" transform="matrix(21.36 0 0 -21.36 422.528 149.58)"/><use xlink:href="#an" transform="matrix(21.36 0 0 -21.36 427.89 149.58)"/><use xlink:href="#an" transform="matrix(21.36 0 0 -21.36 433.25 149.58)"/><use xlink:href="#an" transform="matrix(21.36 0 0 -21.36 438.612 149.58)"/><use xlink:href="#an" transform="matrix(21.36 0 0 -21.36 443.973 149.58)"/><use xlink:href="#an" transform="matrix(21.36 0 0 -21.36 449.334 149.58)"/><use xlink:href="#an" transform="matrix(21.36 0 0 -21.36 454.696 149.58)"/><use xlink:href="#at" transform="matrix(21.36 0 0 -21.36 460.422 149.58)"/><use xlink:href="#ak" transform="matrix(21.36 0 0 -21.36 475.118 149.872)"/><use xlink:href="#al" transform="matrix(21.36 0 0 -21.36 484.592 149.778)"/><use xlink:href="#am" transform="matrix(21.36 0 0 -21.36 493.972 149.58)"/><use xlink:href="#an" transform="matrix(21.36 0 0 -21.36 499.296 149.58)"/><use xlink:href="#ao" transform="matrix(21.36 0 0 -21.36 505.012 149.58)"/><use xlink:href="#ap" transform="matrix(21.36 0 0 -21.36 518.946 149.872)"/><use xlink:href="#aq" transform="matrix(21.36 0 0 -21.36 530.45 149.58)"/><use xlink:href="#aq" transform="matrix(21.36 0 0 -21.36 537.228 149.58)"/><use xlink:href="#ak" transform="matrix(21.36 0 0 -21.36 544.331 149.872)"/><use xlink:href="#ar" transform="matrix(21.36 0 0 -21.36 553.18 149.58)"/><use xlink:href="#as" transform="matrix(21.36 0 0 -21.36 562.014 149.872)"/><use xlink:href="#s" transform="matrix(24 0 0 -24 478.47 503.703)"/><use xlink:href="#t" transform="matrix(24 0 0 -24 495.946 503.34)"/><use xlink:href="#u" transform="matrix(16.02 0 0 -16.02 518.487 509.28)"/><symbol id="au"><path d="M.018 0v.021A.178.178 0 0 1 .1.085a.14.14 0 0 1 .025.08.02.02 0 0 1-.003.012C.12.179.118.18.115.18A.02.02 0 0 1 .106.177.069.069 0 0 0 .071.17a.067.067 0 0 0-.05.022.078.078 0 0 0 .003.11.08.08 0 0 0 .06.024C.11.325.134.315.154.292a.126.126 0 0 0 .03-.088A.196.196 0 0 0 .143.08.242.242 0 0 0 .018 0z"/></symbol><use xlink:href="#au" transform="matrix(24 0 0 -24 531.404 507.547)"/><use xlink:href="#s" transform="matrix(24 0 0 -24 540.99 503.703)"/><use xlink:href="#t" transform="matrix(24 0 0 -24 558.466 503.34)"/><use xlink:href="#w" transform="matrix(16.02 0 0 -16.02 580.968 509.28)"/><symbol id="av"><path d="M.533 0 0 .218v.04l.533.22V.41L.121.238l.412-.17V0z"/></symbol><use xlink:href="#av" transform="matrix(24 0 0 -24 597.711 501.172)"/><use xlink:href="#x" transform="matrix(24 0 0 -24 610.913 503.34)"/><use xlink:href="#y" transform="matrix(24 0 0 -24 617.103 503.703)"/><use xlink:href="#z" transform="matrix(16.02 0 0 -16.02 634.462 509.28)"/><use xlink:href="#z" transform="matrix(16.02 0 0 -16.02 646.04 509.28)"/><use xlink:href="#A" transform="matrix(24 0 0 -24 663.254 503.703)"/><use xlink:href="#x" transform="matrix(24 0 0 -24 669.898 503.34)"/><use xlink:href="#B" transform="matrix(24 0 0 -24 676.479 503.34)"/></svg>