<svg xmlns="http://www.w3.org/2000/svg" xmlns:xlink="http://www.w3.org/1999/xlink" xmlns:inkscape="http://www.inkscape.org/namespaces/inkscape" version="1.1" width="1190.56" height="1683.78" viewBox="0 0 1190.56 1683.78">
<defs>
<path id="font_1_1214" d="M.30078126 .03125C.3606771 .020833334 .40364585 .015625 .4296875 .015625 .45572917 .015625 .46875 .032552083 .46875 .06640625V.41015626H.18359375C.14973958 .41015626 .118489589 .40625 .08984375 .3984375L.0546875 .43359376H.46875V.70703127H.3046875C.27083335 .70703127 .23958333 .703125 .2109375 .6953125L.17578125 .73046877H.69921877L.75390627 .78515627 .83203127 .70703127H.52734377V.43359376H.79296877L.85546877 .49609376 .94140627 .41015626H.52734377V.03515625C.52994796-.022135416 .4986979-.061197919 .43359376-.08203125 .43359376-.04296875 .3893229-.01171875 .30078126 .01171875V.03125Z"/>
<path id="font_1_7263" d="M.33203126 .60546877V.48828126H.671875V.60546877H.33203126M.2734375 .80078127 .3359375 .765625H.6640625L.69921877 .8046875 .76171877 .75390627 .7265625 .7265625C.7265625 .5807292 .72786459 .48697917 .73046877 .4453125L.671875 .4140625V.46484376H.33203126V.4296875L.2734375 .40625C.27604167 .47135417 .27734376 .5358073 .27734376 .5996094 .27734376 .66341146 .27604167 .73046877 .2734375 .80078127M.33203126 .7421875V.62890627H.671875V.7421875H.33203126M.06640625 .36328126H.7890625L.84765627 .421875 .9296875 .33984376H.53515627V.20703125H.73828127L.7890625 .2578125 .86328127 .18359375H.53515627V.0234375C.58203127 .010416667 .64908859 .0032552083 .7363281 .001953125 .8235677 .0006510417 .89453127 .00390625 .94921877 .01171875V-.0078125C.90234377-.018229166 .87630209-.0390625 .87109377-.0703125 .71744796-.065104167 .60872396-.052734376 .5449219-.033203126 .48111979-.013671875 .42903648 .01171875 .38867188 .04296875 .34830729 .07421875 .3125 .110677089 .28125 .15234375 .23177083 .04296875 .15885417-.03515625 .0625-.08203125L.0546875-.0703125C.16927083 .015625 .24088542 .14583333 .26953126 .3203125L.35546876 .26953126C.33984376 .2591146 .328125 .24739583 .3203125 .234375 .3125 .22135417 .3033854 .20052083 .29296876 .171875 .3372396 .1171875 .3997396 .072916667 .48046876 .0390625V.33984376H.1953125C.16145833 .33984376 .13020833 .3359375 .1015625 .328125L.06640625 .36328126Z"/>
<path id="font_1_726" d="M.2421875 .10546875C.2578125 .095052089 .26497398 .07747396 .26367188 .052734376 .26236979 .027994791 .25260417 .010416667 .234375 0 .21614583-.010416667 .203125-.015625 .1953125-.015625 .1875-.015625 .17447917-.010416667 .15625 0 .13802083 .010416667 .1282552 .028645834 .12695313 .0546875 .12565105 .080729167 .13346355 .09830729 .15039063 .107421878 .1673177 .11653646 .18229167 .12109375 .1953125 .12109375 .2109375 .12109375 .2265625 .115885417 .2421875 .10546875M.2421875 .34179688C.26041667 .33268229 .26953126 .31445313 .26953126 .28710938 .26953126 .25976563 .2591146 .24153646 .23828125 .23242188 .21744792 .2233073 .203125 .21875 .1953125 .21875 .18229167 .21875 .1673177 .22460938 .15039063 .23632813 .13346355 .24804688 .12565105 .26627604 .12695313 .29101563 .1282552 .31575523 .13802083 .33268229 .15625 .34179688 .17447917 .35091148 .18880208 .35546876 .19921875 .35546876 .20963542 .35546876 .22395833 .35091148 .2421875 .34179688Z"/>
<path id="font_2_8" d="M.29599 .3177948H.46398927C.60198977 .3177948 .73999026 .41973878 .73999026 .53367617 .73999026 .6116333 .673996 .6826172 .5479889 .6826172H.23899842C.21998596 .6826172 .21099854 .6826172 .21099854 .66360476 .21099854 .6536102 .21998596 .6536102 .23498535 .6536102 .29599 .6536102 .29599 .6456146 .29599 .63461306 .29599 .63261416 .29599 .62661746 .2919922 .6116333L.15699768 .07395935C.147995 .038986207 .1459961 .0289917 .07598877 .0289917 .056991579 .0289917 .04699707 .0289917 .04699707 .010986328 .04699707 0 .055999757 0 .06199646 0 .08099365 0 .100997928 .0019989014 .11999512 .0019989014H.23699951C.2559967 .0019989014 .2769928 0 .29599 0 .3039856 0 .31498719 0 .31498719 .018997193 .31498719 .0289917 .30599977 .0289917 .29100038 .0289917 .23098755 .0289917 .22999573 .035980226 .22999573 .04597473 .22999573 .050979616 .23098755 .05796814 .23199463 .06297302L.29599 .3177948M.36799623 .614624C.3769989 .6516113 .3809967 .6536102 .41999818 .6536102H.5189972C.59399417 .6536102 .6559906 .6296234 .6559906 .55467227 .6559906 .5286865 .6429901 .4437256 .5970001 .39775086 .5799866 .37976075 .5319977 .34179688 .44099427 .34179688H.2999878L.36799623 .614624Z"/>
<path id="font_3_1" d="M.32499696-.24298096C.32499696-.23999024 .32499696-.23799134 .30799867-.22097779 .20799256-.11997986 .1519928 .045013429 .1519928 .24900818 .1519928 .44299317 .19898987 .60998538 .31498719 .7279968 .32499696 .7369995 .32499696 .7389984 .32499696 .74198916 .32499696 .74798586 .31999208 .75 .31599427 .75 .30299378 .75 .22099304 .6779938 .17199707 .5799866 .12098694 .47898866 .09799194 .37199403 .09799194 .24900818 .09799194 .16000366 .11199951 .041015626 .1639862-.06599426 .22299195-.18598938 .30499269-.25097657 .31599427-.25097657 .31999208-.25097657 .32499696-.24897766 .32499696-.24298096Z"/>
<path id="font_2_5" d="M.746994 .6950989C.746994 .70410159 .73999026 .70410159 .73799136 .70410159 .73599246 .70410159 .7319946 .70410159 .723999 .6940918L.6549988 .6100311C.6199951 .6700897 .5649872 .70410159 .48999024 .70410159 .27398683 .70410159 .049987794 .48492433 .049987794 .24972534 .049987794 .08258057 .16699219-.021484375 .31298829-.021484375 .3929901-.021484375 .46299745 .012512207 .5209961 .061553956 .60798647 .13461304 .6339874 .23170471 .6339874 .23971558 .6339874 .24871826 .6259918 .24871826 .6230011 .24871826 .6139984 .24871826 .61299136 .24272156 .61099246 .2387085 .5649872 .08258057 .42999269 .007507324 .32998658 .007507324 .22399903 .007507324 .13198853 .07556152 .13198853 .21769715 .13198853 .24972534 .14199829 .4238739 .25498963 .5549927 .30999757 .6190491 .4039917 .6750946 .49899293 .6750946 .60899356 .6750946 .6579895 .5840149 .6579895 .48191834 .6579895 .4559021 .6549988 .43388368 .6549988 .42988587 .6549988 .42086793 .6649933 .42086793 .66799929 .42086793 .67900088 .42086793 .6799927 .421875 .6839905 .43989564L.746994 .6950989Z"/>
<path id="font_4_9" d="M.15899658 .71398928C.15899658 .7319946 .15899658 .75 .13899231 .75 .11898804 .75 .11898804 .7319946 .11898804 .71398928V-.21400452C.11898804-.23200989 .11898804-.25 .13899231-.25 .15899658-.25 .15899658-.23200989 .15899658-.21400452V.71398928Z"/>
<path id="font_2_4" d="M.3659973 .614624C.375 .6516113 .3789978 .6536102 .41799928 .6536102H.5479889C.6609955 .6536102 .6609955 .5576477 .6609955 .548645 .6609955 .46768189 .5799866 .36471559 .44799806 .36471559H.3039856L.3659973 .614624M.5349884 .35671998C.6439972 .37670899 .7429962 .4526825 .7429962 .5446472 .7429962 .6226196 .673996 .6826172 .5609894 .6826172H.23999024C.22099304 .6826172 .21199036 .6826172 .21199036 .66360476 .21199036 .6536102 .22099304 .6536102 .23599243 .6536102 .29699708 .6536102 .29699708 .6456146 .29699708 .63461306 .29699708 .63261416 .29699708 .62661746 .29299928 .61161807L.1579895 .07395935C.14898682 .038986207 .14698792 .0289917 .07699585 .0289917 .057998659 .0289917 .04798889 .0289917 .04798889 .010986328 .04798889 0 .053985597 0 .07398987 0H.4169922C.56999209 0 .6879883 .11592102 .6879883 .2168274 .6879883 .2987671 .6159973 .34872438 .5349884 .35671998M.3929901 .0289917H.2579956C.24398804 .0289917 .24198914 .0289917 .23599243 .02999878 .22499085 .0309906 .22399903 .032989503 .22399903 .040985109 .22399903 .047973634 .22599793 .053970338 .22799683 .06295776L.2979889 .34472657H.48599244C.60398867 .34472657 .60398867 .2348175 .60398867 .2268219 .60398867 .13090515 .5169983 .0289917 .3929901 .0289917Z"/>
<path id="font_3_2" d="M.28199769 .24900818C.28199769 .32499696 .27198792 .44898988 .21598816 .5649872 .15699768 .68499758 .07499695 .75 .06399536 .75 .05999756 .75 .054992677 .74798586 .054992677 .74198916 .054992677 .7389984 .054992677 .7369995 .07199097 .71998599 .17199707 .61898806 .22799683 .45399476 .22799683 .25 .22799683 .056015016 .18099976-.11099243 .06498718-.22898865 .054992677-.23799134 .054992677-.23999024 .054992677-.24298096 .054992677-.24897766 .05999756-.25097657 .06399536-.25097657 .07699585-.25097657 .15899658-.1789856 .20799256-.08099365 .25898744 .021011353 .28199769 .12901306 .28199769 .24900818Z"/>
<path id="font_3_15" d="M.6749878 .32421876C.68899539 .32421876 .70700076 .32421876 .70700076 .34220887 .70700076 .36120606 .6899872 .36120606 .6749878 .36120606H.085998538C.07199097 .36120606 .053985597 .36120606 .053985597 .34321595 .053985597 .32421876 .070999149 .32421876 .085998538 .32421876H.6749878M.6749878 .13780213C.68899539 .13780213 .70700076 .13780213 .70700076 .15579224 .70700076 .17480469 .6899872 .17480469 .6749878 .17480469H.085998538C.07199097 .17480469 .053985597 .17480469 .053985597 .15679932 .053985597 .13780213 .070999149 .13780213 .085998538 .13780213H.6749878Z"/>
<path id="font_4_6" d="M.61099246 .37960816C.61099246 .5316467 .45799256 .59765627 .33299256 .59765627 .20298767 .59765627 .054992677 .5276489 .054992677 .38061524V.013534546C.054992677-.004470825 .054992677-.022460938 .07499695-.022460938 .09498596-.022460938 .09498596-.004470825 .09498596 .013534546V.37561036C.09498596 .52565 .2579956 .5576477 .33299256 .5576477 .37799073 .5576477 .44099427 .548645 .49398805 .5146332 .57099917 .4656372 .57099917 .40161134 .57099917 .37460328V.013534546C.57099917-.004470825 .57099917-.022460938 .59098818-.022460938 .61099246-.022460938 .61099246-.004470825 .61099246 .013534546V.37960816Z"/>
<path id="font_3_6" d="M.43998719 .16790772H.41799928C.4149933 .15092469 .40699769 .09597778 .39698792 .07998657 .3899994 .070999149 .33299256 .070999149 .30299378 .070999149H.117996219C.14498902 .09397888 .20599365 .15792847 .23199463 .18190003 .38398744 .3217926 .43998719 .37374879 .43998719 .47270204 .43998719 .5878906 .34899903 .66503909 .23298645 .66503909 .116989139 .66503909 .04899597 .5658264 .04899597 .4797058 .04899597 .42871095 .09298706 .42871095 .09599304 .42871095 .116989139 .42871095 .14299011 .44371034 .14299011 .475708 .14299011 .5037079 .12399292 .5227051 .09599304 .5227051 .08699036 .5227051 .084991458 .5227051 .08198547 .521698 .100997928 .5899048 .15499878 .6360321 .21998596 .6360321 .30499269 .6360321 .35699464 .56481936 .35699464 .47270204 .35699464 .3877411 .30799867 .313797 .25099183 .24984741L.04899597 .023986817V0H.4139862L.43998719 .16790772Z"/>
<path id="font_3_12" d="M.2979889 .36079408C.34799195 .38781739 .42099 .43385316 .42099 .5179291 .42099 .6049957 .33699037 .66503909 .24499512 .66503909 .1459961 .66503909 .067993167 .59199526 .067993167 .5009155 .067993167 .46688844 .07798767 .43286134 .10598755 .39883424 .116989139 .38581849 .117996219 .38482667 .18798828 .3357849 .09098816 .29074098 .040985109 .22369385 .040985109 .15063477 .040985109 .044540407 .14199829-.021484375 .24398804-.021484375 .35499574-.021484375 .44799806 .060546876 .44799806 .16563416 .44799806 .2677307 .37599183 .3127594 .2979889 .36079408M.1619873 .4508667C.14898682 .45988465 .10899353 .48590089 .10899353 .5349426 .10899353 .59999087 .1769867 .641037 .24398804 .641037 .31599427 .641037 .37998963 .58898928 .37998963 .516922 .37998963 .45587159 .33599855 .4068451 .27799989 .3748169L.1619873 .4508667M.20899964 .32176209 .32998658 .2427063C.35598756 .22569275 .4019928 .19465637 .4019928 .13360596 .4019928 .057556154 .32499696 .005508423 .24499512 .005508423 .1599884 .005508423 .08699036 .06756592 .08699036 .15063477 .08699036 .22869873 .14399719 .29174806 .20899964 .32176209Z"/>
<path id="font_3_9" d="M.12799073 .5727997C.17098999 .5588074 .20599365 .5578003 .21699524 .5578003 .32998658 .5578003 .4019928 .6409912 .4019928 .6550598 .4019928 .6590576 .3999939 .6640625 .3939972 .6640625 .3919983 .6640625 .3899994 .6640625 .3809967 .66004946 .32499696 .6358795 .2769928 .6328125 .25099183 .6328125 .18499756 .6328125 .13798523 .6530609 .11898804 .6610565 .11199951 .6640625 .10998535 .6640625 .10899353 .6640625 .100997928 .6640625 .100997928 .65805056 .100997928 .64201357V.34495545C.100997928 .32695008 .100997928 .32095338 .11299133 .32095338 .117996219 .32095338 .11898804 .32196046 .1289978 .33395387 .15699768 .37493897 .20399475 .39894105 .2539978 .39894105 .30699159 .39894105 .33299256 .34994508 .34098817 .33294679 .35798646 .29396058 .35899354 .2449646 .35899354 .20697022 .35899354 .16897583 .35899354 .11193848 .33099366 .0667572 .30899049 .03060913 .269989 .005508423 .22599793 .005508423 .1599884 .005508423 .09498596 .050689699 .07699585 .12397766 .08198547 .12197876 .08799744 .12097168 .09298706 .12097168 .10998535 .12097168 .13699341 .13098145 .13699341 .16497803 .13699341 .1929779 .117996219 .20898438 .09298706 .20898438 .07499695 .20898438 .04899597 .19998169 .04899597 .16098023 .04899597 .075790408 .116989139-.021484375 .22799683-.021484375 .34098817-.021484375 .43998719 .073791507 .43998719 .20097351 .43998719 .3199463 .3600006 .4189453 .25498963 .4189453 .19799805 .4189453 .1539917 .39393617 .12799073 .36595155V.5727997Z"/>
<path id="font_3_5" d="M.28799439 .64105227C.28799439 .664032 .28799439 .66503909 .2679901 .66503909 .24398804 .6380615 .19400025 .6012573 .09098816 .6012573V.5722656C.11399841 .5722656 .1639862 .5722656 .21899414 .59825137V.07701111C.21899414 .041000368 .21598816 .0289917 .12799073 .0289917H.09700012V0C.12399292 .0019989014 .22099304 .0019989014 .2539978 .0019989014 .2869873 .0019989014 .3829956 .0019989014 .4099884 0V.0289917H.3789978C.29100038 .0289917 .28799439 .041000368 .28799439 .07701111V.64105227Z"/>
<path id="font_3_7" d="M.18399048 .35888673C.16699219 .35787965 .16299439 .35688783 .16299439 .34788514 .16299439 .33789063 .16799927 .33789063 .18598938 .33789063H.23199463C.31698609 .33789063 .35499574 .267807 .35499574 .17172241 .35499574 .04058838 .2869873 .005508423 .23799134 .005508423 .18998719 .005508423 .10798645 .028564454 .07899475 .09472656 .11099243 .08970642 .13999939 .10771179 .13999939 .14372254 .13999939 .17271424 .11898804 .1927185 .09098816 .1927185 .066986087 .1927185 .040985109 .1787262 .040985109 .14071656 .040985109 .051620485 .12998963-.021484375 .24099732-.021484375 .3600006-.021484375 .44799806 .06965637 .44799806 .17071533 .44799806 .26280213 .37399293 .33488465 .27799989 .35188294 .36499024 .3769226 .42099 .45011903 .42099 .5282135 .42099 .6071167 .33898927 .66503909 .24198914 .66503909 .14199829 .66503909 .067993167 .604126 .067993167 .5312042 .067993167 .49121095 .09899902 .48321534 .11399841 .48321534 .1349945 .48321534 .15899658 .49821473 .15899658 .5282135 .15899658 .5602112 .1349945 .57421877 .11299133 .57421877 .10699463 .57421877 .10499573 .57421877 .101989749 .57321169 .13999939 .641037 .23399353 .641037 .23899842 .641037 .27198792 .641037 .33699037 .6260681 .33699037 .5282135 .33699037 .5092163 .33399964 .453125 .30499269 .41001893 .2749939 .3658905 .24099732 .36288453 .21398926 .36187745L.18399048 .35888673Z"/>
<path id="font_3_8" d="M.36099244 .6508026C.36099244 .6697998 .36099244 .6748047 .34700013 .6748047 .33898927 .6748047 .33599855 .6748047 .32798768 .662796L.026992798 .19598389V.16699219H.2899933V.07598877C.2899933 .038986207 .28799439 .0289917 .21499634 .0289917H.19499207V0C.21798706 .0019989014 .29699708 .0019989014 .32499696 .0019989014 .35299684 .0019989014 .43299867 .0019989014 .45599366 0V.0289917H.43598939C.3639984 .0289917 .36099244 .038986207 .36099244 .07598877V.16699219H.46199037V.19598389H.36099244V.6508026M.29499818 .5728302V.19598389H.051986696L.29499818 .5728302Z"/>
<path id="font_4_4" d="M.45298768 .46626283C.45298768 .4982605 .42599488 .52926638 .3889923 .52926638 .35099793 .52926638 .32499696 .4982605 .32499696 .46626283 .32499696 .43426515 .35198976 .40325929 .3889923 .40325929 .4269867 .40325929 .45298768 .43426515 .45298768 .46626283M.45298768 .033721925C.45298768 .065719608 .42599488 .096725467 .3889923 .096725467 .35099793 .096725467 .32499696 .065719608 .32499696 .033721925 .32499696 .0017242432 .35198976-.029281617 .3889923-.029281617 .4269867-.029281617 .45298768 .0017242432 .45298768 .033721925M.08999634 .27046205C.07299805 .27046205 .054992677 .27046205 .054992677 .25045777 .054992677 .23046875 .07299805 .23046875 .08999634 .23046875H.6879883C.7049866 .23046875 .72299197 .23046875 .72299197 .25045777 .72299197 .27046205 .7049866 .27046205 .6879883 .27046205H.08999634Z"/>
<path id="font_3_11" d="M.47499085 .62054446V.6435547H.23399353C.11299133 .6435547 .11099243 .6567688 .10699463 .67578127H.084991458L.053985597 .47554017H.07598877C.07899475 .49354554 .08799744 .555542 .100997928 .5665436 .10899353 .5725403 .18399048 .5725403 .19799805 .5725403H.4099884L.3039856 .42053224C.2769928 .38153077 .17599488 .21751404 .17599488 .029510498 .17599488 .018508912 .17599488-.021484375 .21699524-.021484375 .25898744-.021484375 .25898744 .017501831 .25898744 .030517579V.08052063C.25898744 .2295227 .2829895 .34553529 .32998658 .41253663L.47499085 .62054446Z"/>
<path id="font_3_10" d="M.12298584 .34773255C.12298584 .60061648 .24598694 .641037 .2999878 .641037 .33599855 .641037 .37199403 .62991335 .3909912 .5996094 .3789978 .5996094 .34098817 .5996094 .34098817 .558609 .34098817 .53660586 .35598756 .51760867 .38198854 .51760867 .40699769 .51760867 .42399598 .53260806 .42399598 .56159976 .42399598 .6137543 .38598634 .66503909 .29899598 .66503909 .17298889 .66503909 .040985109 .53559878 .040985109 .31570436 .040985109 .040527345 .16099549-.021484375 .24598694-.021484375 .35499574-.021484375 .44799806 .07354736 .44799806 .2036438 .44799806 .33673097 .35499574 .42578126 .25498963 .42578126 .1659851 .42578126 .1329956 .34873963 .12298584 .32070924V.34773255M.24598694 .005508423C.18299866 .005508423 .15299988 .061538698 .14399719 .08256531 .1349945 .10858154 .125 .15760803 .125 .22766114 .125 .30670167 .16099549 .40577699 .25099183 .40577699 .30599977 .40577699 .33499146 .3687439 .34999085 .33473207 .3659973 .29769898 .3659973 .2476654 .3659973 .20463562 .3659973 .15361023 .3659973 .10858154 .34700013 .07055664 .32199098 .022521973 .28599549 .005508423 .24598694 .005508423Z"/>
<path id="font_2_1" d="M.18399048 .04798889C.18399048 .07699585 .1599884 .09700012 .13598633 .09700012 .10699463 .09700012 .08699036 .07299805 .08699036 .04899597 .08699036 .019989014 .11099243 0 .1349945 0 .1639862 0 .18399048 .023986817 .18399048 .04798889Z"/>
<path id="font_5_56" d="M.43998719 .2004242C.43998719 .3194275 .3600006 .4184265 .25498963 .4184265 .19799805 .4184265 .1539917 .39343263 .12799073 .36543275V.5722656C.17098999 .558609 .20599365 .5576172 .21699524 .5576172 .32998658 .5576172 .4019928 .6404724 .4019928 .65423586 .4019928 .65815737 .3999939 .66308596 .3939972 .66308596 .3939972 .6638031 .3899994 .6638031 .3809967 .6598053 .32499696 .6358032 .2769928 .6328125 .25099183 .6328125 .18499756 .6322632 .13798523 .6522522 .11898804 .66026309 .11199951 .66308596 .10899353 .66308596 .10899353 .66308596 .100997928 .66308596 .100997928 .65708926 .100997928 .6411133V.34443666C.100997928 .32644654 .100997928 .32044984 .11299133 .32044984 .117996219 .32044984 .11898804 .32144166 .1289978 .33345033 .15699768 .37443543 .20399475 .3984375 .2539978 .3984375 .30699159 .3984375 .33299256 .34944154 .34098817 .33244325 .35798646 .29345704 .35899354 .24446106 .35899354 .20648194 .35899354 .16848755 .35899354 .11149597 .33099366 .06651306 .30899049 .030426026 .269989 .005508423 .22599793 .005508423 .1599884 .005508423 .09498596 .050354005 .07699585 .12310791 .08198547 .12110901 .08799744 .12011719 .09298706 .12011719 .10998535 .12011719 .13699341 .1301117 .13699341 .16410828 .13699341 .19210816 .117996219 .20811463 .09298706 .20811463 .07499695 .20811463 .04899597 .19911194 .04899597 .16011048 .04899597 .07527161 .116989139-.021484375 .22799683-.021484375 .34098817-.021484375 .43998719 .073272708 .43998719 .20010376V.2004242Z"/>
</defs>
<use data-text="&#x4e8e;" xlink:href="#font_1_1214" transform="matrix(23.9104,0,0,-23.9104,229.854,165.642)"/>
<use data-text="&#x662f;" xlink:href="#font_1_7263" transform="matrix(23.9104,0,0,-23.9104,253.7644,165.642)"/>
<use data-text="&#xff1a;" xlink:href="#font_1_726" transform="matrix(23.9104,0,0,-23.9104,277.6748,165.642)"/>
<use data-text="P" xlink:href="#font_2_8" transform="matrix(23.9104,0,0,-23.9104,388.856,203.70401)"/>
<use data-text="(" xlink:href="#font_3_1" transform="matrix(23.9104,0,0,-23.9104,407.19999,203.70401)"/>
<use data-text="C" xlink:href="#font_2_5" transform="matrix(23.9104,0,0,-23.9104,416.304,203.70401)"/>
<use data-text="|" xlink:href="#font_4_9" transform="matrix(23.9104,0,0,-23.9104,441.412,203.70401)"/>
<use data-text="B" xlink:href="#font_2_4" transform="matrix(23.9104,0,0,-23.9104,454.69599,203.70401)"/>
<use data-text=")" xlink:href="#font_3_2" transform="matrix(23.9104,0,0,-23.9104,473.688,203.70401)"/>
<use data-text="=" xlink:href="#font_3_15" transform="matrix(23.9104,0,0,-23.9104,489.3971,203.70401)"/>
<use data-text="P" xlink:href="#font_2_8" transform="matrix(23.9104,0,0,-23.9104,516.676,187.53)"/>
<use data-text="(" xlink:href="#font_3_1" transform="matrix(23.9104,0,0,-23.9104,535.02,187.53)"/>
<use data-text="B" xlink:href="#font_2_4" transform="matrix(23.9104,0,0,-23.9104,544.124,187.53)"/>
<use data-text="&#x2229;" xlink:href="#font_4_6" transform="matrix(23.9104,0,0,-23.9104,568.43,187.53)"/>
<use data-text="C" xlink:href="#font_2_5" transform="matrix(23.9104,0,0,-23.9104,589.68399,187.53)"/>
<use data-text=")" xlink:href="#font_3_2" transform="matrix(23.9104,0,0,-23.9104,608.15,187.53)"/>
<path transform="matrix(2,0,0,-2,144,144)" stroke-width=".4782" stroke-linecap="butt" stroke-miterlimit="10" stroke-linejoin="miter" fill="none" stroke="#000000" d="M186.338-26.864H236.628"/>
<use data-text="P" xlink:href="#font_2_8" transform="matrix(23.9104,0,0,-23.9104,539.194,220.106)"/>
<use data-text="(" xlink:href="#font_3_1" transform="matrix(23.9104,0,0,-23.9104,557.536,220.106)"/>
<use data-text="B" xlink:href="#font_2_4" transform="matrix(23.9104,0,0,-23.9104,566.64,220.106)"/>
<use data-text=")" xlink:href="#font_3_2" transform="matrix(23.9104,0,0,-23.9104,585.63406,220.106)"/>
<use data-text="=" xlink:href="#font_3_15" transform="matrix(23.9104,0,0,-23.9104,626.28799,203.70401)"/>
<use data-text="2" xlink:href="#font_3_6" transform="matrix(23.9104,0,0,-23.9104,659.382,187.53)"/>
<use data-text="8" xlink:href="#font_3_12" transform="matrix(23.9104,0,0,-23.9104,671.0742,187.53)"/>
<use data-text="2" xlink:href="#font_3_6" transform="matrix(23.9104,0,0,-23.9104,682.7664,187.53)"/>
<use data-text="5" xlink:href="#font_3_9" transform="matrix(23.9104,0,0,-23.9104,694.4586,187.53)"/>
<path transform="matrix(2,0,0,-2,144,144)" stroke-width=".4782" stroke-linecap="butt" stroke-miterlimit="10" stroke-linejoin="miter" fill="none" stroke="#000000" d="M254.765-26.864H284.03"/>
<use data-text="1" xlink:href="#font_3_5" transform="matrix(23.9104,0,0,-23.9104,653.53,220.106)"/>
<use data-text="3" xlink:href="#font_3_7" transform="matrix(23.9104,0,0,-23.9104,665.22219,220.106)"/>
<use data-text="2" xlink:href="#font_3_6" transform="matrix(23.9104,0,0,-23.9104,676.91439,220.106)"/>
<use data-text="2" xlink:href="#font_3_6" transform="matrix(23.9104,0,0,-23.9104,688.60659,220.106)"/>
<use data-text="4" xlink:href="#font_3_8" transform="matrix(23.9104,0,0,-23.9104,700.29879,220.106)"/>
<use data-text="&#x00f7;" xlink:href="#font_4_4" transform="matrix(23.9104,0,0,-23.9104,719.764,203.70401)"/>
<use data-text="1" xlink:href="#font_3_5" transform="matrix(23.9104,0,0,-23.9104,746.066,187.53)"/>
<use data-text="3" xlink:href="#font_3_7" transform="matrix(23.9104,0,0,-23.9104,757.7582,187.53)"/>
<path transform="matrix(2,0,0,-2,144,144)" stroke-width=".4782" stroke-linecap="butt" stroke-miterlimit="10" stroke-linejoin="miter" fill="none" stroke="#000000" d="M301.033-26.864H312.739"/>
<use data-text="2" xlink:href="#font_3_6" transform="matrix(23.9104,0,0,-23.9104,746.066,220.106)"/>
<use data-text="4" xlink:href="#font_3_8" transform="matrix(23.9104,0,0,-23.9104,757.7582,220.106)"/>
<use data-text="=" xlink:href="#font_3_15" transform="matrix(23.9104,0,0,-23.9104,778.51,203.70401)"/>
<use data-text="2" xlink:href="#font_3_6" transform="matrix(23.9104,0,0,-23.9104,805.752,187.53)"/>
<use data-text="8" xlink:href="#font_3_12" transform="matrix(23.9104,0,0,-23.9104,817.4442,187.53)"/>
<use data-text="2" xlink:href="#font_3_6" transform="matrix(23.9104,0,0,-23.9104,829.1364,187.53)"/>
<use data-text="5" xlink:href="#font_3_9" transform="matrix(23.9104,0,0,-23.9104,840.8286,187.53)"/>
<path transform="matrix(2,0,0,-2,144,144)" stroke-width=".4782" stroke-linecap="butt" stroke-miterlimit="10" stroke-linejoin="miter" fill="none" stroke="#000000" d="M330.876-26.864H354.288"/>
<use data-text="7" xlink:href="#font_3_11" transform="matrix(23.9104,0,0,-23.9104,805.752,220.106)"/>
<use data-text="1" xlink:href="#font_3_5" transform="matrix(23.9104,0,0,-23.9104,817.4442,220.106)"/>
<use data-text="6" xlink:href="#font_3_10" transform="matrix(23.9104,0,0,-23.9104,829.1364,220.106)"/>
<use data-text="3" xlink:href="#font_3_7" transform="matrix(23.9104,0,0,-23.9104,840.8286,220.106)"/>
<use data-text="." xlink:href="#font_2_1" transform="matrix(23.9104,0,0,-23.9104,854.966,203.70401)"/>
<use data-text="5" xlink:href="#font_5_56" transform="matrix(23.9104,0,0,-23.9104,589.41799,1601.824)"/>
</svg>
